<?xml version="1.0" encoding="utf-8"?>
<!-- Generator: Adobe Illustrator 16.2.0, SVG Export Plug-In . SVG Version: 6.00 Build 0)  -->
<!DOCTYPE svg PUBLIC "-//W3C//DTD SVG 1.1//EN" "http://www.w3.org/Graphics/SVG/1.1/DTD/svg11.dtd">
<svg version="1.1" id="Layer_1" xmlns="http://www.w3.org/2000/svg" xmlns:xlink="http://www.w3.org/1999/xlink" x="0px" y="0px"
	 width="48px" height="48px" viewBox="0 0 48 48" enable-background="new 0 0 48 48" xml:space="preserve">
<radialGradient id="SVGID_1_" cx="-990.1177" cy="-1041.9077" r="0.6371" gradientTransform="matrix(52.4898 0 0 52.1153 51987.6914 54311.3438)" gradientUnits="userSpaceOnUse">
	<stop  offset="0" style="stop-color:#34364E;stop-opacity:0.98"/>
	<stop  offset="1" style="stop-color:#0C0824"/>
</radialGradient>
<path fill="url(#SVGID_1_)" d="M2.001,2.051h44.008v43.898H2.001V2.051z"/>
<path fill="#31C5F0" d="M2.001,2.051h44.008v43.898H2.001V2.051z M0,48h48V0H0V48z M32.368,19.699c-1.577,0-2.115,0.819-2.115,1.499
	c0,0.74,0.356,1.253,2.481,2.377c3.136,1.559,4.117,3.058,4.117,5.248c0,3.286-2.443,5.051-5.742,5.051
	c-1.741,0-3.242-0.364-4.099-0.878c-0.144-0.06-0.163-0.168-0.163-0.325v-3.028c0-0.207,0.096-0.266,0.24-0.168
	c1.261,0.838,2.703,1.214,4.021,1.214c1.577,0,2.241-0.681,2.241-1.598c0-0.741-0.462-1.392-2.482-2.467
	c-2.838-1.391-4.021-2.802-4.021-5.169c0-2.644,2.02-4.844,5.521-4.844c1.723,0,2.925,0.266,3.58,0.572
	c0.162,0.099,0.201,0.267,0.201,0.414v2.812c0,0.167-0.096,0.266-0.299,0.207C34.967,20.044,33.668,19.699,32.368,19.699
	L32.368,19.699z M15.17,22.136c0.462,0.039,0.817,0.039,1.616,0.039c2.337,0,4.541-0.838,4.541-4.104
	c0-2.604-1.578-3.917-4.242-3.917c-0.799,0-1.559,0.041-1.924,0.06L15.17,22.136L15.17,22.136z M11.601,11.245
	c0-0.148,0.279-0.246,0.442-0.246c1.279-0.059,3.184-0.099,5.156-0.099c5.541,0,7.705,3.118,7.705,7.092
	c0,5.209-3.684,7.448-8.205,7.448c-0.76,0-1.02-0.04-1.558-0.04v7.873c0,0.167-0.058,0.245-0.241,0.245h-3.059
	c-0.164,0-0.24-0.059-0.24-0.245V11.245L11.601,11.245z"/>
</svg>
