<svg x="0px" y="0px" width="48px" height="48px" viewBox="0 0 48 48">
<title>CSS3 Logo Badge</title>
<path fill="#B81DA2" d="M6.657,42.755L2.813-0.369h42.281L41.25,42.755l-17.343,4.876"/>
<path fill="#DC34B1" d="M24,43.881l13.969-3.844L41.25,3.1H24"/>
<path fill="#ECEDEE" d="M24,19.131H11.626l0.468,5.344H24V19.131z M24,8.443H10.688l0.469,5.25H24V8.443z M24,32.912l-11.625-3.095
	l0.657,5.626L24,38.442V32.912z"/>
<path fill="#FFFFFF" d="M24,24.475h6.469l-0.657,6.844L24,32.912v5.53l10.782-2.999l2.438-27H24v5.25h7.5l-0.563,5.438H24V24.475z"
	/>
</svg>
