<svg x="0px" y="0px" width="48px" height="48px" viewBox="0 0 48 48">
<title>HTML5 Logo Badge</title>
<path fill="#E325D8" d="M6.657,42.755L2.813-0.369h42.281L41.25,42.755l-17.343,4.876"/>
<path fill="#EF29BC" d="M24,43.881l13.969-3.844L41.25,3.1H24"/>
<path fill="#EBEEEB" d="M24,19.131H16.97L16.5,13.693H24v-5.25H10.688l1.406,16.031H24V19.131z M24,32.912l-6-1.594L17.626,27.1
	h-5.25l0.657,8.344L24,38.442V32.912z"/>
<path fill="#FFFFFF" d="M24,24.475h6.469l-0.657,6.844L24,32.912v5.53l10.782-2.999l1.499-16.313H24V24.475z M24,8.443v5.25h12.75
	l0.469-5.25H24z"/>
</svg>

