<svg version="1.1" id="Layer_1" xmlns="http://www.w3.org/2000/svg" xmlns:xlink="http://www.w3.org/1999/xlink" x="0px" y="0px"
	 width="256px" height="256px" viewBox="0 0 256 256" enable-background="new 0 0 256 256" xml:space="preserve">
<g>
	<path fill="#F700D1" d="M104,104h48v48h-48V104z"/>
	<path d="M110.375,135.913l3.673-2.223c0.708,1.257,1.354,2.319,2.899,2.319c1.482,0,2.417-0.579,2.417-2.835v-15.337h4.511v15.4
		c0,4.673-2.739,6.799-6.734,6.799C113.533,140.037,111.439,138.169,110.375,135.913"/>
	<path d="M126.326,135.559l3.673-2.126c0.967,1.578,2.224,2.738,4.446,2.738c1.869,0,3.062-0.935,3.062-2.224
		c0-1.546-1.225-2.094-3.287-2.996l-1.127-0.483c-3.255-1.386-5.414-3.125-5.414-6.798c0-3.383,2.578-5.961,6.605-5.961
		c2.868,0,4.93,0.999,6.412,3.609l-3.512,2.255c-0.773-1.385-1.611-1.933-2.9-1.933c-1.32,0-2.158,0.838-2.158,1.933
		c0,1.354,0.838,1.901,2.771,2.739l1.128,0.483c3.834,1.644,5.993,3.318,5.993,7.088c0,4.061-3.19,6.283-7.476,6.283
		C130.354,140.166,127.647,138.169,126.326,135.559"/>
</g>
</svg>
