<svg x="0px" y="0px" width="48px" height="48px" viewBox="0 0 48 48">
<radialGradient id="SVGID_1_" cx="-984.2544" cy="1083.2803" r="0.6366" gradientTransform="matrix(52.4898 0 0 -52.1153 51679.9414 56467.4375)" gradientUnits="userSpaceOnUse">
	<stop  offset="0" style="stop-color:#3C3D5E;stop-opacity:0.98"/>
	<stop  offset="1" style="stop-color:#1D0B42"/>
</radialGradient>
<path fill="url(#SVGID_1_)" d="M2.001,2.051h44.008v43.898H2.001V2.051z"/>
<path fill="#EA00FF" d="M2.001,2.051h44.008v43.898H2.001V2.051z M0,48h48V0H0V48z M32.368,19.699c-1.577,0-2.115,0.819-2.115,1.499
	c0,0.74,0.356,1.253,2.481,2.377c3.136,1.559,4.117,3.058,4.117,5.248c0,3.286-2.443,5.051-5.742,5.051
	c-1.741,0-3.242-0.364-4.1-0.878c-0.144-0.061-0.162-0.168-0.162-0.325v-3.028c0-0.207,0.096-0.266,0.239-0.168
	c1.261,0.838,2.703,1.215,4.021,1.215c1.578,0,2.242-0.682,2.242-1.599c0-0.741-0.463-1.392-2.482-2.467
	c-2.838-1.392-4.021-2.802-4.021-5.169c0-2.644,2.021-4.844,5.521-4.844c1.723,0,2.925,0.266,3.58,0.572
	c0.162,0.099,0.201,0.267,0.201,0.414v2.812c0,0.167-0.097,0.266-0.299,0.207C34.967,20.044,33.668,19.699,32.368,19.699
	L32.368,19.699z M15.17,22.136c0.462,0.039,0.817,0.039,1.616,0.039c2.337,0,4.541-0.838,4.541-4.104
	c0-2.604-1.578-3.917-4.242-3.917c-0.799,0-1.559,0.041-1.924,0.06L15.17,22.136L15.17,22.136z M11.601,11.245
	c0-0.148,0.279-0.246,0.442-0.246c1.279-0.059,3.184-0.099,5.156-0.099c5.541,0,7.705,3.118,7.705,7.092
	c0,5.209-3.684,7.447-8.205,7.447c-0.76,0-1.02-0.039-1.558-0.039v7.873c0,0.166-0.058,0.244-0.241,0.244h-3.059
	c-0.164,0-0.24-0.059-0.24-0.244V11.245L11.601,11.245z"/>
</svg>
