<svg  x="0px" y="0px" width="48px" height="48px" viewBox="0 0 48 48" >
<g transform="translate(-220.62 -300.98)">
	<g transform="matrix(.20627 0 0 .20627 539.45 317.71)">
		<g transform="matrix(.70214 -.71204 .71204 .70214 -1050.9 -48.428)">
			<path fill="#999999" d="M-306.318-82.91l8.016-166.348c0,0,23.054-7.557,29.445-37.011c7.996-36.852-20.475-50.533-20.475-50.533
				l-15.555,0.392l0.248,33.901l-10.274,14.314c-7.299,0.888-15.646,0.282-22.929,0.209l-10.682-13.426l-0.191-33.904l-15.311,0.383
				c0,0-25.454,15.203-19.2,51.679c5.005,29.158,32.422,35.307,32.422,35.307l-3.896,166.248c0,0,2.998,21.233,22.624,21.096
				C-308.83-60.752-306.318-82.91-306.318-82.91L-306.318-82.91z"/>
			<path fill="#F2F2F2" d="M-310.085-86.649l8.898-168.474c0,0,17.51-4.474,25.48-30.601c10.672-35.015-18.7-45.261-18.7-45.261
				l-4.567,0.125l0.25,30.728l-16.574,18.777c-6.25,0.857-18.512,0.764-24.748,0.684l-14.873-17.908l-0.195-30.729l-5.091,0.14
				c0,0-25.328,12.176-16.736,46.235c6.503,25.798,30.792,29.052,30.792,29.052l-2.452,168.305c0,0,0.26,21.22,18.64,20.157
				C-313.099-66.389-310.085-86.649-310.085-86.649L-310.085-86.649z"/>
			<path fill="#E6E6E6" d="M-316.423-92.766l7.182-165.552c0,0,19.498-8.146,25.423-22.713c12.636-31.078-8.89-43.046-8.89-43.046
				l1.872,24.601l-19.394,22.273c-5.709,0.809-28.134,1.013-33.833,0.938l-17.68-21.254l-0.082-24.647
				c0,0-23.373,18.72-8.097,43.513c12.709,20.62,31.609,21.138,31.609,21.138l-4.409,165.481c0,0-2.658,18.639,12.486,18.34
				C-314.375-74.007-316.423-92.766-316.423-92.766L-316.423-92.766z"/>
		</g>
		<g transform="matrix(.69167 -.67537 .68923 .67776 -1730.1 183.53)">
			<g transform="matrix(1.0952 0 0 .94705 -54.329 39.291)">

					<linearGradient id="SVGID_1_" gradientUnits="userSpaceOnUse" x1="147933.2031" y1="170067.9844" x2="148725.6719" y2="170067.9844" gradientTransform="matrix(0.0076 6.290013e-004 5.490298e-004 0.0064 919.6418 -4985.4004)">
					<stop  offset="0" style="stop-color:#808080"/>
					<stop  offset="1" style="stop-color:#CCCCCC"/>
				</linearGradient>
				<path fill="url(#SVGID_1_)" d="M341.492,80.695l95.377-3.685l12.083-11.216l41.768,3.438l-0.365,16.802l-41.976,6.247
					l-11.583-11.98l-95.34,2.211L341.492,80.695z"/>
			</g>
			<path fill="#D165EE" d="M195.278,103.942c4.703-4.59,10.166-9.289,21.02-8.029c0,0,21.051,4.366,37.117,4.952
				c21.548,0.782,25.359-1.764,37.769-1.273c6.491,0.252,13.178,2.877,16.67,6.664c2.737,2.951,1.702,10.735,1.702,10.735
				s0.613,7.778-2.244,10.841c-3.69,3.964-10.519,6.926-17.021,7.502c-12.453,1.115-16.14-1.246-37.754,0.617
				c-16.121,1.385-37.403,6.82-37.403,6.82c-10.937,1.801-16.172-2.633-20.651-6.985c-4.363-4.25-4.037-15.814-4.037-15.814
				S190.701,108.406,195.278,103.942z"/>

				<linearGradient id="SVGID_2_" gradientUnits="userSpaceOnUse" x1="-57104.418" y1="-52232.8633" x2="-57102.9805" y2="-52216.8242" gradientTransform="matrix(0.0068 7.329602e-005 7.099845e-005 0.0061 960.9309 -4675.5815)">
				<stop  offset="0" style="stop-color:#1A1A1A"/>
				<stop  offset="0.3424" style="stop-color:#CD88DF"/>
				<stop  offset="0.6888" style="stop-color:#CA23F6"/>
				<stop  offset="1" style="stop-color:#D32DFF"/>
			</linearGradient>
			<path fill="url(#SVGID_2_)" d="M192.929,128.579c13.099-12.64,75.607-12.228,100.863-8.59c3.781,0.54,12.203,9.756,8.867,11.644
				c-4.028,2.273-9.302,3.723-14.583,4.008c-9.667,0.538-20.156-1.001-28.454-0.049c-15.274,1.754-30.136,4.212-47.314,7.912
				c-2.581,0.557-5.324-0.262-8.154-1.042C198.889,141.001,188.651,132.712,192.929,128.579L192.929,128.579z"/>

				<linearGradient id="SVGID_3_" gradientUnits="userSpaceOnUse" x1="93176.9063" y1="-232059.3438" x2="93192.5313" y2="-231884.9063" gradientTransform="matrix(0.0068 -7.329579e-005 7.099845e-005 -0.0061 960.9299 -4381.4702)">
				<stop  offset="0" style="stop-color:#1A1A1A"/>
				<stop  offset="0.3424" style="stop-color:#CD88DF"/>
				<stop  offset="0.6888" style="stop-color:#CA23F6"/>
				<stop  offset="1" style="stop-color:#D32DFF"/>
			</linearGradient>
			<path fill="url(#SVGID_3_)" d="M193.369,111.079c12.48,12.002,75.094,8.454,100.557,3.553
				c3.811-0.743,12.712-10.384,9.458-12.105c-3.91-2.08-9.116-3.258-14.404-3.274c-9.645-0.055-20.219,2.009-28.473,1.469
				c-15.213-0.993-29.965-2.715-46.984-5.549c-2.556-0.437-5.345,0.528-8.211,1.443C199.947,98.354,189.293,107.157,193.369,111.079
				L193.369,111.079z"/>
		</g>
	</g>
</g>
</svg>
